{"glyphs":{"0":{"ha":1389,"x_min":0,"x_max":1215,"o":"m 260 608 q 362 362 260 464 q 608 260 464 260 q 853 362 751 260 q 955 608 955 464 l 955 1215 q 853 1461 955 1359 q 608 1563 751 1563 q 362 1461 464 1563 q 260 1215 260 1359 l 260 608 m 0 1215 q 178 1645 0 1468 q 608 1823 355 1823 q 1038 1645 860 1823 q 1215 1215 1215 1468 l 1215 608 q 1038 178 1215 355 q 608 0 860 0 q 178 178 355 0 q 0 608 0 355 l 0 1215 z "},"1":{"ha":434,"x_min":0,"x_max":260,"o":"m 260 1823 l 260 0 l 0 0 l 0 1823 l 260 1823 z "},"2":{"ha":1389,"x_min":0,"x_max":1215,"o":"m 1172 1124 q 1194 1296 1172 1124 q 1038 1645 1215 1468 q 608 1823 860 1823 q 178 1645 355 1823 q 0 1215 0 1468 l 260 1215 q 362 1461 260 1359 q 608 1563 464 1563 q 853 1461 751 1563 q 911 1114 955 1359 q 0 0 868 868 l 1215 0 l 1215 260 l 608 260 q 1172 1124 1128 781 z "},"3":{"ha":1389,"x_min":0,"x_max":1215,"o":"m 781 1563 l 0 1563 l 0 1823 l 1215 1823 l 882 1152 q 1038 1038 966 1109 q 1215 608 1215 860 q 1038 178 1215 355 q 608 0 860 0 q 178 178 355 0 q 0 606 0 355 l 260 606 q 362 362 260 464 q 608 260 464 260 q 853 362 751 260 q 955 608 955 464 q 853 853 955 751 q 608 955 751 955 q 488 943 545 955 l 781 1563 z "},"4":{"ha":1389,"x_min":0,"x_max":1215,"o":"m 955 521 l 955 0 l 694 0 l 694 521 l 0 521 l 0 1823 l 260 1823 l 260 781 l 694 781 l 694 1823 l 955 1823 l 955 781 l 1215 781 l 1215 521 l 955 521 z "},"5":{"ha":1389,"x_min":0,"x_max":1215,"o":"m 260 1166 q 608 1215 411 1215 q 1038 1038 860 1215 q 1215 608 1215 860 q 1038 178 1215 355 q 608 0 860 0 q 178 178 355 0 q 0 605 1 354 l 260 605 q 362 362 262 463 q 608 260 464 260 q 853 362 751 260 q 955 608 955 464 q 853 853 955 751 q 608 955 751 955 q 0 781 260 955 l 0 1823 l 1215 1823 l 1215 1563 l 260 1563 l 260 1166 z "},"6":{"ha":1389,"x_min":0,"x_max":1215,"o":"m 955 608 q 853 853 955 751 q 608 955 751 955 q 362 853 464 955 q 260 608 260 751 q 362 362 260 464 q 608 260 464 260 q 853 362 751 260 q 955 608 955 464 m 608 1563 q 362 1461 464 1563 q 260 1215 260 1359 l 260 1108 q 608 1215 411 1215 q 1038 1038 860 1215 q 1215 608 1215 860 q 1038 178 1215 355 q 608 0 860 0 q 178 178 355 0 q 0 608 0 355 l 0 1215 q 178 1645 0 1468 q 608 1823 355 1823 l 955 1823 l 955 1563 l 608 1563 z "},"7":{"ha":1389,"x_min":0,"x_max":1215,"o":"m 0 1823 l 1215 1823 l 307 0 l 0 0 l 781 1563 l 0 1563 l 0 1823 z "},"8":{"ha":1302,"x_min":-35,"x_max":1180,"o":"m 260 909 q 8 1255 52 1042 q 142 1645 -35 1468 q 572 1823 320 1823 q 1002 1645 825 1823 q 1137 1255 1180 1468 q 868 909 1093 1042 q 1137 568 1093 781 q 1002 178 1180 355 q 572 0 825 0 q 142 178 320 0 q 8 568 -35 355 q 260 909 52 781 m 876 579 q 854 637 876 579 q 703 738 833 694 q 442 738 572 781 q 269 579 312 694 q 327 362 225 464 q 572 260 429 260 q 818 362 716 260 q 876 579 920 464 m 703 1085 q 768 1107 703 1085 q 876 1244 833 1128 q 818 1461 920 1359 q 572 1563 716 1563 q 327 1461 429 1563 q 269 1244 225 1359 q 442 1085 312 1128 q 703 1085 572 1042 z "},"9":{"ha":1389,"x_min":0,"x_max":1215,"o":"m 955 1215 q 853 1461 955 1359 q 608 1563 751 1563 q 362 1461 464 1563 q 260 1215 260 1359 q 362 970 260 1072 q 608 868 464 868 q 853 970 751 868 q 955 1215 955 1072 m 608 260 q 853 362 751 260 q 955 608 955 464 l 955 715 q 608 608 804 608 q 178 785 355 608 q 0 1215 0 963 q 178 1645 0 1468 q 608 1823 355 1823 q 1038 1645 860 1823 q 1215 1215 1215 1468 l 1215 608 q 1038 178 1215 355 q 608 0 860 0 l 260 0 l 260 260 l 608 260 z "}," ":{"ha":521,"x_min":0,"x_max":0,"o":""},"!":{"ha":434,"x_min":0,"x_max":260,"o":"m 0 347 l 0 1563 l 260 1563 l 260 347 l 0 347 m 130 260 q 222 222 184 260 q 260 130 260 184 q 222 38 260 76 q 130 0 184 0 q 38 38 76 0 q 0 130 0 76 q 38 222 0 184 q 130 260 76 260 z "},"\"":{"ha":868,"x_min":0,"x_max":694,"o":"m 0 1215 l 0 1563 l 260 1563 l 260 1215 l 0 1215 m 434 1215 l 434 1563 l 694 1563 l 694 1215 l 434 1215 z "},"#":{"ha":1389,"x_min":0,"x_max":1215,"o":"m 174 0 l 174 260 l 0 260 l 0 521 l 174 521 l 174 781 l 0 781 l 0 1042 l 174 1042 l 174 1215 l 434 1215 l 434 1042 l 781 1042 l 781 1215 l 1042 1215 l 1042 1042 l 1215 1042 l 1215 781 l 1042 781 l 1042 521 l 1215 521 l 1215 260 l 1042 260 l 1042 0 l 781 0 l 781 260 l 434 260 l 434 0 l 174 0 m 434 781 l 434 521 l 781 521 l 781 781 l 434 781 z "},"$":{"ha":1389,"x_min":0,"x_max":1215,"o":"m 477 1811 l 477 2083 l 738 2083 l 738 1811 q 1038 1645 907 1775 q 1073 1607 1057 1626 l 917 1375 q 853 1461 892 1421 q 738 1538 802 1512 l 738 1042 l 1215 1042 l 1215 608 q 1038 178 1215 355 q 738 12 907 47 l 738 -260 l 477 -260 l 477 12 q 178 178 308 47 q 144 213 160 195 l 298 446 q 362 362 323 401 q 477 285 414 311 l 477 781 l 0 781 l 0 1215 q 178 1645 0 1468 q 477 1811 308 1775 m 738 781 l 738 285 q 853 362 802 311 q 955 608 955 464 l 955 781 l 738 781 m 477 1042 l 477 1538 q 362 1461 414 1512 q 260 1215 260 1359 l 260 1042 l 477 1042 z "},"%":{"ha":1389,"x_min":0,"x_max":1215,"o":"m 0 0 l 905 1215 l 1215 1215 l 311 0 l 0 0 m 304 781 q 212 819 250 781 q 174 911 174 857 q 212 1004 174 966 q 304 1042 250 1042 q 396 1004 358 1042 q 434 911 434 966 q 396 819 434 857 q 304 781 358 781 m 911 174 q 819 212 857 174 q 781 304 781 250 q 819 396 781 358 q 911 434 857 434 q 1004 396 966 434 q 1042 304 1042 358 q 1004 212 1042 250 q 911 174 966 174 z "},"&":{"ha":1042,"x_min":174,"x_max":955,"o":"m 434 174 l 434 434 l 174 434 l 174 694 l 434 694 l 434 955 l 694 955 l 694 694 l 955 694 l 955 434 l 694 434 l 694 174 l 434 174 z "},"'":{"ha":521,"x_min":0,"x_max":260,"o":"m 0 1215 l 0 1563 l 260 1563 l 260 1215 l 0 1215 z "},"(":{"ha":868,"x_min":0,"x_max":694,"o":"m 0 -260 l 0 1823 l 694 1823 l 694 1563 l 260 1563 l 260 0 l 694 0 l 694 -260 l 0 -260 z "},")":{"ha":868,"x_min":0,"x_max":694,"o":"m 0 -260 l 0 0 l 434 0 l 434 1563 l 0 1563 l 0 1823 l 694 1823 l 694 -260 l 0 -260 z "},"*":{"ha":781,"x_min":0,"x_max":608,"o":"m 174 608 l 174 781 l 0 781 l 0 1042 l 174 1042 l 174 1215 l 434 1215 l 434 1042 l 608 1042 l 608 781 l 434 781 l 434 608 l 174 608 z "},"+":{"ha":1389,"x_min":0,"x_max":1215,"o":"m 477 0 l 477 521 l 0 521 l 0 781 l 477 781 l 477 1215 l 738 1215 l 738 781 l 1215 781 l 1215 521 l 738 521 l 738 0 l 477 0 z "},",":{"ha":608,"x_min":0,"x_max":260,"o":"m 0 -87 l 0 260 l 260 260 l 260 -87 l 0 -87 z "},"-":{"ha":1389,"x_min":0,"x_max":1215,"o":"m 0 521 l 0 781 l 1215 781 l 1215 521 l 0 521 z "},".":{"ha":608,"x_min":0,"x_max":260,"o":"m 130 0 q 38 38 76 0 q 0 130 0 76 q 38 222 0 184 q 130 260 76 260 q 222 222 184 260 q 260 130 260 184 q 222 38 260 76 q 130 0 184 0 z "},"/":{"ha":1736,"x_min":-174,"x_max":1736,"o":"m -174 -608 l 1431 1823 l 1736 1823 l 130 -608 l -174 -608 z "},":":{"ha":608,"x_min":0,"x_max":260,"o":"m 130 955 q 222 917 184 955 q 260 825 260 879 q 222 732 260 770 q 130 694 184 694 q 38 732 76 694 q 0 825 0 770 q 38 917 0 879 q 130 955 76 955 m 130 521 q 222 483 184 521 q 260 391 260 445 q 222 298 260 336 q 130 260 184 260 q 38 298 76 260 q 0 391 0 336 q 38 483 0 445 q 130 521 76 521 z "},";":{"ha":521,"x_min":0,"x_max":260,"o":"m 0 174 l 0 521 l 260 521 l 260 174 l 0 174 m 130 955 q 222 917 184 955 q 260 825 260 879 q 222 732 260 770 q 130 694 184 694 q 38 732 76 694 q 0 825 0 770 q 38 917 0 879 q 130 955 76 955 z "},"<":{"ha":1389,"x_min":0,"x_max":1215,"o":"m 1215 1215 l 822 1215 l 0 608 l 822 0 l 1215 0 l 395 608 l 1215 1215 z "},"=":{"ha":1042,"x_min":0,"x_max":868,"o":"m 0 87 l 0 347 l 868 347 l 868 87 l 0 87 m 0 521 l 0 781 l 868 781 l 868 521 l 0 521 z "},">":{"ha":1389,"x_min":0,"x_max":1215,"o":"m 821 608 l 0 0 l 393 0 l 1215 608 l 393 1215 l 0 1215 l 821 608 z "},"?":{"ha":1389,"x_min":0,"x_max":1215,"o":"m 608 0 q 515 38 553 0 q 477 130 477 76 q 515 222 477 184 q 608 260 553 260 q 700 222 662 260 q 738 130 738 184 q 700 38 738 76 q 608 0 662 0 m 477 781 q 955 955 868 746 q 853 1200 955 1099 q 608 1302 751 1302 q 362 1200 464 1302 q 260 955 260 1099 q 271 864 260 907 l 5 864 q 0 955 0 909 q 178 1385 0 1207 q 608 1563 355 1563 q 1038 1385 860 1563 q 1215 955 1215 1207 q 1128 734 1215 861 q 738 521 1042 608 l 738 347 l 477 347 l 477 781 z "},"@":{"ha":1302,"x_min":-37,"x_max":1146,"o":"m 673 369 q 517 312 624 312 q 349 369 418 312 q 266 525 279 426 q 331 802 243 681 q 574 922 419 922 q 815 854 654 922 q 791 602 791 651 q 798 518 792 552 q 819 480 803 480 q 915 561 884 480 q 929 753 945 642 q 820 970 918 898 q 593 1043 722 1043 q 276 890 387 1043 q 201 507 165 738 q 323 264 222 355 q 564 174 425 174 q 708 199 639 174 q 823 285 777 224 l 956 142 q 781 37 886 73 q 574 0 675 0 q 199 136 355 0 q 9 490 42 273 q 125 1008 -37 800 q 583 1215 286 1215 q 944 1098 798 1215 q 1119 779 1090 981 q 1069 460 1146 600 q 831 320 991 320 q 673 369 724 320 m 563 781 q 466 707 502 781 q 442 544 430 632 q 490 487 450 487 q 555 522 530 487 q 584 617 581 557 q 590 773 587 677 q 563 781 581 781 z "},"A":{"ha":1389,"x_min":0,"x_max":1215,"o":"m 853 362 q 904 413 853 362 q 955 608 955 464 q 853 853 955 751 q 608 955 751 955 q 362 853 464 955 q 260 608 260 751 q 362 362 260 464 q 608 260 464 260 q 853 362 751 260 m 1215 608 q 1038 178 1215 355 q 608 0 860 0 q 178 178 355 0 q 0 608 0 355 q 178 1038 0 860 q 608 1215 355 1215 q 955 1108 804 1215 l 955 1215 l 1215 1215 l 1215 608 z "},"B":{"ha":1389,"x_min":0,"x_max":1215,"o":"m 853 362 q 904 413 853 362 q 955 608 955 464 q 853 853 955 751 q 608 955 751 955 q 362 853 464 955 q 260 608 260 751 q 362 362 260 464 q 608 260 464 260 q 853 362 751 260 m 260 1108 q 608 1215 411 1215 q 1038 1038 860 1215 q 1215 608 1215 860 q 1038 178 1215 355 q 608 0 860 0 q 178 178 355 0 q 0 608 0 355 l 0 1563 l 260 1563 l 260 1108 z "},"C":{"ha":1128,"x_min":0,"x_max":1039,"o":"m 1038 178 q 608 0 860 0 q 178 178 355 0 q 0 608 0 355 q 178 1038 0 860 q 608 1215 355 1215 q 1038 1038 860 1215 l 1039 1036 l 854 852 l 853 853 q 608 955 751 955 q 362 853 464 955 q 260 608 260 751 q 362 362 260 464 q 608 260 464 260 q 853 362 751 260 l 854 363 l 1039 179 l 1038 178 z "},"D":{"ha":1389,"x_min":0,"x_max":1215,"o":"m 853 362 q 904 413 853 362 q 955 608 955 464 q 853 853 955 751 q 608 955 751 955 q 362 853 464 955 q 260 608 260 751 q 362 362 260 464 q 608 260 464 260 q 853 362 751 260 m 1215 608 q 1038 178 1215 355 q 608 0 860 0 q 178 178 355 0 q 0 608 0 355 q 178 1038 0 860 q 608 1215 355 1215 q 955 1108 804 1215 l 955 1563 l 1215 1563 l 1215 608 z "},"E":{"ha":1389,"x_min":0,"x_max":1215,"o":"m 271 521 q 362 362 293 431 q 608 260 464 260 q 853 362 751 260 l 854 363 l 1039 179 l 1038 178 q 608 0 860 0 q 178 178 355 0 q 0 608 0 355 q 178 1038 0 860 q 608 1215 355 1215 q 1038 1038 860 1215 q 1215 608 1215 860 q 1207 521 1215 564 l 1128 521 l 271 521 m 909 781 q 853 853 887 819 q 608 955 751 955 q 362 853 464 955 q 307 781 328 819 l 909 781 z "},"F":{"ha":1042,"x_min":0,"x_max":1039,"o":"m 0 955 q 178 1385 0 1207 q 608 1563 355 1563 q 1038 1385 860 1563 l 1039 1383 l 854 1199 l 853 1200 q 608 1302 751 1302 q 362 1200 464 1302 q 271 1042 293 1131 l 868 1042 l 868 781 l 260 781 l 260 0 l 0 0 l 0 955 z "},"G":{"ha":1389,"x_min":0,"x_max":1215,"o":"m 608 260 q 853 362 751 260 q 955 608 955 464 q 853 853 955 751 q 608 955 751 955 q 362 853 464 955 q 260 608 260 751 q 362 362 260 464 q 608 260 464 260 m 955 107 q 608 0 804 0 q 178 178 355 0 q 0 608 0 355 q 178 1038 0 860 q 608 1215 355 1215 q 1038 1038 860 1215 q 1215 608 1215 860 l 1215 0 q 1038 -430 1215 -252 q 608 -608 860 -608 l 608 -347 q 853 -245 751 -347 q 955 0 955 -144 l 955 107 z "},"H":{"ha":1389,"x_min":0,"x_max":1215,"o":"m 260 608 q 362 853 260 751 q 608 955 464 955 q 853 853 751 955 q 955 608 955 751 l 955 0 l 1215 0 l 1215 608 q 1038 1038 1215 860 q 608 1215 860 1215 q 260 1108 411 1215 l 260 1563 l 0 1563 l 0 0 l 260 0 l 260 608 z "},"I":{"ha":434,"x_min":0,"x_max":260,"o":"m 260 1215 l 260 0 l 0 0 l 0 1215 l 260 1215 m 130 1302 q 38 1340 76 1302 q 0 1432 0 1378 q 38 1525 0 1487 q 130 1563 76 1563 q 222 1525 184 1563 q 260 1432 260 1487 q 222 1340 260 1378 q 130 1302 184 1302 z "},"J":{"ha":434,"x_min":-347,"x_max":260,"o":"m 130 1302 q 38 1340 76 1302 q 0 1432 0 1378 q 38 1525 0 1487 q 130 1563 76 1563 q 222 1525 184 1563 q 260 1432 260 1487 q 222 1340 260 1378 q 130 1302 184 1302 m 0 1215 l 260 1215 l 260 -3 q 83 -433 260 -255 q -347 -610 -95 -610 l -347 -350 q -102 -248 -203 -350 q 0 -3 0 -146 l 0 1215 z "},"K":{"ha":1128,"x_min":0,"x_max":1042,"o":"m 260 656 l 731 1215 l 1042 1215 l 461 498 l 1042 0 l 694 0 l 260 347 l 260 0 l 0 0 l 0 1563 l 260 1563 l 260 656 z "},"L":{"ha":434,"x_min":0,"x_max":260,"o":"m 260 1563 l 260 0 l 0 0 l 0 1563 l 260 1563 z "},"M":{"ha":2344,"x_min":0,"x_max":2170,"o":"m 955 608 q 853 853 955 751 q 608 955 751 955 q 362 853 464 955 q 260 608 260 751 l 260 0 l 0 0 l 0 608 q 178 1038 0 860 q 608 1215 355 1215 q 1038 1038 860 1215 q 1085 985 1063 1012 q 1133 1038 1107 1012 q 1563 1215 1310 1215 q 1992 1038 1815 1215 q 2170 608 2170 860 l 2170 0 l 1910 0 l 1910 608 q 1808 853 1910 751 q 1563 955 1706 955 q 1317 853 1419 955 q 1215 608 1215 751 l 1215 0 l 955 0 l 955 608 z "},"N":{"ha":1389,"x_min":0,"x_max":1215,"o":"m 260 0 l 0 0 l 0 608 q 178 1038 0 860 q 608 1215 355 1215 q 1038 1038 860 1215 q 1215 608 1215 860 l 1215 0 l 955 0 l 955 608 q 853 853 955 751 q 608 955 751 955 q 362 853 464 955 q 260 608 260 751 l 260 0 z "},"O":{"ha":1389,"x_min":0,"x_max":1215,"o":"m 608 0 q 178 178 355 0 q 0 608 0 355 q 178 1038 0 860 q 608 1215 355 1215 q 1038 1038 860 1215 q 1215 608 1215 860 q 1038 178 1215 355 q 608 0 860 0 m 608 260 q 853 362 751 260 q 955 608 955 464 q 853 853 955 751 q 608 955 751 955 q 362 853 464 955 q 260 608 260 751 q 362 362 260 464 q 608 260 464 260 z "},"P":{"ha":1389,"x_min":0,"x_max":1215,"o":"m 853 362 q 904 413 853 362 q 955 608 955 464 q 853 853 955 751 q 608 955 751 955 q 362 853 464 955 q 260 608 260 751 q 362 362 260 464 q 608 260 464 260 q 853 362 751 260 m 0 608 q 178 1038 0 860 q 608 1215 355 1215 q 1038 1038 860 1215 q 1215 608 1215 860 q 1038 178 1215 355 q 608 0 860 0 q 260 107 411 0 l 260 -347 l 0 -347 l 0 608 z "},"Q":{"ha":1389,"x_min":0,"x_max":1215,"o":"m 362 362 q 413 311 362 362 q 608 260 464 260 q 853 362 751 260 q 955 608 955 464 q 853 853 955 751 q 608 955 751 955 q 362 853 464 955 q 260 608 260 751 q 362 362 260 464 m 1215 -347 l 955 -347 l 955 107 q 608 0 804 0 q 178 178 355 0 q 0 608 0 355 q 178 1038 0 860 q 608 1215 355 1215 q 1038 1038 860 1215 q 1215 608 1215 860 l 1215 -347 z "},"R":{"ha":1128,"x_min":0,"x_max":1039,"o":"m 0 608 q 178 1038 0 860 q 608 1215 355 1215 q 1038 1038 860 1215 l 1039 1036 l 854 852 l 853 853 q 608 955 751 955 q 362 853 464 955 q 260 608 260 751 l 260 0 l 0 0 l 0 608 z "},"S":{"ha":1042,"x_min":-1,"x_max":920,"o":"m 347 1215 l 868 1215 l 868 955 l 387 955 q 252 901 248 954 q 541 750 252 822 q 836 618 753 697 q 920 392 920 540 q 807 99 920 198 q 477 0 694 0 l 0 0 l -1 260 l 471 260 q 648 350 642 267 q 537 449 648 420 q 81 635 161 543 q 0 860 0 728 q 347 1215 0 1218 z "},"T":{"ha":781,"x_min":0,"x_max":608,"o":"m 260 955 l 260 608 q 362 362 260 464 q 608 260 464 260 l 608 0 q 178 178 355 0 q 0 608 0 355 l 0 1563 l 260 1563 l 260 1215 l 608 1215 l 608 955 l 260 955 z "},"U":{"ha":1389,"x_min":0,"x_max":1215,"o":"m 260 608 q 362 362 260 464 q 608 260 464 260 q 853 362 751 260 q 955 608 955 464 l 955 1215 l 1215 1215 l 1215 608 q 1038 178 1215 355 q 608 0 860 0 q 178 178 355 0 q 0 608 0 355 l 0 1215 l 260 1215 l 260 608 z "},"V":{"ha":1389,"x_min":0,"x_max":1215,"o":"m 0 1215 l 311 1215 l 608 608 l 909 1215 l 1215 1215 l 608 0 l 0 1215 z "},"W":{"ha":2344,"x_min":0,"x_max":2170,"o":"m 1085 231 q 1038 178 1063 203 q 608 0 860 0 q 178 178 355 0 q 0 608 0 355 l 0 1215 l 260 1215 l 260 608 q 362 362 260 464 q 608 260 464 260 q 853 362 751 260 q 955 608 955 464 l 955 1215 l 1215 1215 l 1215 608 q 1317 362 1215 464 q 1563 260 1419 260 q 1808 362 1706 260 q 1910 608 1910 464 l 1910 1215 l 2170 1215 l 2170 608 q 1992 178 2170 355 q 1563 0 1815 0 q 1133 178 1310 0 q 1085 231 1107 203 z "},"X":{"ha":1389,"x_min":0,"x_max":1215,"o":"m 454 608 l 0 1215 l 308 1215 l 608 814 l 907 1215 l 1215 1215 l 762 608 l 1215 0 l 907 0 l 608 401 l 308 0 l 0 0 l 454 608 z "},"Y":{"ha":1389,"x_min":0,"x_max":1215,"o":"m 0 608 l 0 1215 l 260 1215 l 260 608 q 362 362 260 464 q 608 260 464 260 q 853 362 751 260 q 955 608 955 464 l 955 1215 l 1215 1215 l 1215 0 q 1038 -430 1215 -252 q 608 -608 860 -608 l 608 -347 q 853 -245 751 -347 q 955 0 955 -144 l 955 107 q 608 0 804 0 q 178 178 355 0 q 0 608 0 355 z "},"Z":{"ha":1389,"x_min":0,"x_max":1215,"o":"m 0 1215 l 1215 1215 l 521 260 l 1215 260 l 1215 0 l 0 0 l 694 955 l 0 955 l 0 1215 z "},"[":{"ha":868,"x_min":0,"x_max":694,"o":"m 0 -260 l 0 1215 l 694 1215 l 694 955 l 260 955 l 260 0 l 694 0 l 694 -260 l 0 -260 z "},"\\":{"ha":1736,"x_min":-174,"x_max":1736,"o":"m 1432 -608 l -174 1823 l 132 1823 l 1736 -608 l 1432 -608 z "},"]":{"ha":868,"x_min":0,"x_max":694,"o":"m 0 -260 l 0 0 l 434 0 l 434 955 l 0 955 l 0 1215 l 694 1215 l 694 -260 l 0 -260 z "},"^":{"ha":1042,"x_min":0,"x_max":781,"o":"m 0 781 q 391 1215 0 1215 q 781 781 781 1215 l 521 781 q 391 955 521 955 q 260 781 260 955 l 0 781 z "},"_":{"ha":1389,"x_min":0,"x_max":1215,"o":"m 0 -260 l 0 0 l 1215 0 l 1215 -260 l 0 -260 z "},"`":{"ha":868,"x_min":0,"x_max":694,"o":"m 0 1823 l 347 1823 l 694 1128 l 347 1128 l 0 1823 z "},"a":{"ha":1389,"x_min":0,"x_max":1215,"o":"m 853 362 q 904 413 853 362 q 955 608 955 464 q 853 853 955 751 q 608 955 751 955 q 362 853 464 955 q 260 608 260 751 q 362 362 260 464 q 608 260 464 260 q 853 362 751 260 m 1215 608 q 1038 178 1215 355 q 608 0 860 0 q 178 178 355 0 q 0 608 0 355 q 178 1038 0 860 q 608 1215 355 1215 q 955 1108 804 1215 l 955 1215 l 1215 1215 l 1215 608 z "},"b":{"ha":1389,"x_min":0,"x_max":1215,"o":"m 853 362 q 904 413 853 362 q 955 608 955 464 q 853 853 955 751 q 608 955 751 955 q 362 853 464 955 q 260 608 260 751 q 362 362 260 464 q 608 260 464 260 q 853 362 751 260 m 260 1108 q 608 1215 411 1215 q 1038 1038 860 1215 q 1215 608 1215 860 q 1038 178 1215 355 q 608 0 860 0 q 178 178 355 0 q 0 608 0 355 l 0 1563 l 260 1563 l 260 1108 z "},"c":{"ha":1215,"x_min":0,"x_max":1039,"o":"m 1038 178 q 608 0 860 0 q 178 178 355 0 q 0 608 0 355 q 178 1038 0 860 q 608 1215 355 1215 q 1038 1038 860 1215 l 1039 1036 l 854 852 l 853 853 q 608 955 751 955 q 362 853 464 955 q 260 608 260 751 q 362 362 260 464 q 608 260 464 260 q 853 362 751 260 l 854 363 l 1039 179 l 1038 178 z "},"d":{"ha":1389,"x_min":0,"x_max":1215,"o":"m 853 362 q 904 413 853 362 q 955 608 955 464 q 853 853 955 751 q 608 955 751 955 q 362 853 464 955 q 260 608 260 751 q 362 362 260 464 q 608 260 464 260 q 853 362 751 260 m 1215 608 q 1038 178 1215 355 q 608 0 860 0 q 178 178 355 0 q 0 608 0 355 q 178 1038 0 860 q 608 1215 355 1215 q 955 1108 804 1215 l 955 1563 l 1215 1563 l 1215 608 z "},"e":{"ha":1389,"x_min":0,"x_max":1215,"o":"m 271 521 q 362 362 293 431 q 608 260 464 260 q 853 362 751 260 l 854 363 l 1039 179 l 1038 178 q 608 0 860 0 q 178 178 355 0 q 0 608 0 355 q 178 1038 0 860 q 608 1215 355 1215 q 1038 1038 860 1215 q 1215 608 1215 860 q 1207 521 1215 564 l 1128 521 l 271 521 m 909 781 q 853 853 887 819 q 608 955 751 955 q 362 853 464 955 q 307 781 328 819 l 909 781 z "},"f":{"ha":781,"x_min":0,"x_max":608,"o":"m 0 955 q 178 1385 0 1207 q 608 1563 355 1563 l 608 1302 q 362 1200 464 1302 q 271 1042 293 1131 l 608 1042 l 608 781 l 260 781 l 260 0 l 0 0 l 0 955 z "},"g":{"ha":1389,"x_min":0,"x_max":1215,"o":"m 608 260 q 853 362 751 260 q 955 608 955 464 q 853 853 955 751 q 608 955 751 955 q 362 853 464 955 q 260 608 260 751 q 362 362 260 464 q 608 260 464 260 m 955 107 q 608 0 804 0 q 178 178 355 0 q 0 608 0 355 q 178 1038 0 860 q 608 1215 355 1215 q 1038 1038 860 1215 q 1215 608 1215 860 l 1215 0 q 1038 -430 1215 -252 q 608 -608 860 -608 l 608 -347 q 853 -245 751 -347 q 955 0 955 -144 l 955 107 z "},"h":{"ha":1389,"x_min":0,"x_max":1215,"o":"m 260 608 q 362 853 260 751 q 608 955 464 955 q 853 853 751 955 q 955 608 955 751 l 955 0 l 1215 0 l 1215 608 q 1038 1038 1215 860 q 608 1215 860 1215 q 260 1108 411 1215 l 260 1563 l 0 1563 l 0 0 l 260 0 l 260 608 z "},"i":{"ha":434,"x_min":0,"x_max":260,"o":"m 260 1215 l 260 0 l 0 0 l 0 1215 l 260 1215 m 130 1302 q 38 1340 76 1302 q 0 1432 0 1378 q 38 1525 0 1487 q 130 1563 76 1563 q 222 1525 184 1563 q 260 1432 260 1487 q 222 1340 260 1378 q 130 1302 184 1302 z "},"j":{"ha":434,"x_min":-347,"x_max":260,"o":"m 130 1302 q 38 1340 76 1302 q 0 1432 0 1378 q 38 1525 0 1487 q 130 1563 76 1563 q 222 1525 184 1563 q 260 1432 260 1487 q 222 1340 260 1378 q 130 1302 184 1302 m 0 1215 l 260 1215 l 260 -3 q 83 -433 260 -255 q -347 -610 -95 -610 l -347 -350 q -102 -248 -203 -350 q 0 -3 0 -146 l 0 1215 z "},"k":{"ha":1128,"x_min":0,"x_max":1042,"o":"m 260 656 l 731 1215 l 1042 1215 l 461 498 l 1042 0 l 694 0 l 260 347 l 260 0 l 0 0 l 0 1563 l 260 1563 l 260 656 z "},"l":{"ha":434,"x_min":0,"x_max":260,"o":"m 260 1563 l 260 0 l 0 0 l 0 1563 l 260 1563 z "},"m":{"ha":2344,"x_min":0,"x_max":2170,"o":"m 955 608 q 853 853 955 751 q 608 955 751 955 q 362 853 464 955 q 260 608 260 751 l 260 0 l 0 0 l 0 608 q 178 1038 0 860 q 608 1215 355 1215 q 1038 1038 860 1215 q 1085 985 1063 1012 q 1133 1038 1107 1012 q 1563 1215 1310 1215 q 1992 1038 1815 1215 q 2170 608 2170 860 l 2170 0 l 1910 0 l 1910 608 q 1808 853 1910 751 q 1563 955 1706 955 q 1317 853 1419 955 q 1215 608 1215 751 l 1215 0 l 955 0 l 955 608 z "},"n":{"ha":1389,"x_min":0,"x_max":1215,"o":"m 260 0 l 0 0 l 0 608 q 178 1038 0 860 q 608 1215 355 1215 q 1038 1038 860 1215 q 1215 608 1215 860 l 1215 0 l 955 0 l 955 608 q 853 853 955 751 q 608 955 751 955 q 362 853 464 955 q 260 608 260 751 l 260 0 z "},"o":{"ha":1389,"x_min":0,"x_max":1215,"o":"m 608 0 q 178 178 355 0 q 0 608 0 355 q 178 1038 0 860 q 608 1215 355 1215 q 1038 1038 860 1215 q 1215 608 1215 860 q 1038 178 1215 355 q 608 0 860 0 m 608 260 q 853 362 751 260 q 955 608 955 464 q 853 853 955 751 q 608 955 751 955 q 362 853 464 955 q 260 608 260 751 q 362 362 260 464 q 608 260 464 260 z "},"p":{"ha":1389,"x_min":0,"x_max":1215,"o":"m 853 362 q 904 413 853 362 q 955 608 955 464 q 853 853 955 751 q 608 955 751 955 q 362 853 464 955 q 260 608 260 751 q 362 362 260 464 q 608 260 464 260 q 853 362 751 260 m 0 608 q 178 1038 0 860 q 608 1215 355 1215 q 1038 1038 860 1215 q 1215 608 1215 860 q 1038 178 1215 355 q 608 0 860 0 q 260 107 411 0 l 260 -347 l 0 -347 l 0 608 z "},"q":{"ha":1389,"x_min":0,"x_max":1215,"o":"m 362 362 q 413 311 362 362 q 608 260 464 260 q 853 362 751 260 q 955 608 955 464 q 853 853 955 751 q 608 955 751 955 q 362 853 464 955 q 260 608 260 751 q 362 362 260 464 m 1215 -347 l 955 -347 l 955 107 q 608 0 804 0 q 178 178 355 0 q 0 608 0 355 q 178 1038 0 860 q 608 1215 355 1215 q 1038 1038 860 1215 q 1215 608 1215 860 l 1215 -347 z "},"r":{"ha":781,"x_min":0,"x_max":608,"o":"m 0 608 q 178 1038 0 860 q 608 1215 355 1215 l 608 955 q 362 853 464 955 q 260 608 260 751 l 260 0 l 0 0 l 0 608 z "},"s":{"ha":1042,"x_min":-1,"x_max":920,"o":"m 347 1215 l 868 1215 l 868 955 l 387 955 q 252 901 248 954 q 541 750 252 822 q 836 618 753 697 q 920 392 920 540 q 807 99 920 198 q 477 0 694 0 l 0 0 l -1 260 l 471 260 q 648 350 642 267 q 537 449 648 420 q 81 635 161 543 q 0 860 0 728 q 347 1215 0 1218 z "},"t":{"ha":781,"x_min":0,"x_max":608,"o":"m 260 955 l 260 608 q 362 362 260 464 q 608 260 464 260 l 608 0 q 178 178 355 0 q 0 608 0 355 l 0 1563 l 260 1563 l 260 1215 l 608 1215 l 608 955 l 260 955 z "},"u":{"ha":1389,"x_min":0,"x_max":1215,"o":"m 260 608 q 362 362 260 464 q 608 260 464 260 q 853 362 751 260 q 955 608 955 464 l 955 1215 l 1215 1215 l 1215 608 q 1038 178 1215 355 q 608 0 860 0 q 178 178 355 0 q 0 608 0 355 l 0 1215 l 260 1215 l 260 608 z "},"v":{"ha":1389,"x_min":0,"x_max":1215,"o":"m 0 1215 l 311 1215 l 608 608 l 909 1215 l 1215 1215 l 608 0 l 0 1215 z "},"w":{"ha":2344,"x_min":0,"x_max":2170,"o":"m 1085 231 q 1038 178 1063 203 q 608 0 860 0 q 178 178 355 0 q 0 608 0 355 l 0 1215 l 260 1215 l 260 608 q 362 362 260 464 q 608 260 464 260 q 853 362 751 260 q 955 608 955 464 l 955 1215 l 1215 1215 l 1215 608 q 1317 362 1215 464 q 1563 260 1419 260 q 1808 362 1706 260 q 1910 608 1910 464 l 1910 1215 l 2170 1215 l 2170 608 q 1992 178 2170 355 q 1563 0 1815 0 q 1133 178 1310 0 q 1085 231 1107 203 z "},"x":{"ha":1389,"x_min":0,"x_max":1215,"o":"m 454 608 l 0 1215 l 308 1215 l 608 814 l 907 1215 l 1215 1215 l 762 608 l 1215 0 l 907 0 l 608 401 l 308 0 l 0 0 l 454 608 z "},"y":{"ha":1389,"x_min":0,"x_max":1215,"o":"m 0 608 l 0 1215 l 260 1215 l 260 608 q 362 362 260 464 q 608 260 464 260 q 853 362 751 260 q 955 608 955 464 l 955 1215 l 1215 1215 l 1215 0 q 1038 -430 1215 -252 q 608 -608 860 -608 l 608 -347 q 853 -245 751 -347 q 955 0 955 -144 l 955 107 q 608 0 804 0 q 178 178 355 0 q 0 608 0 355 z "},"z":{"ha":1389,"x_min":0,"x_max":1215,"o":"m 0 1215 l 1215 1215 l 521 260 l 1215 260 l 1215 0 l 0 0 l 694 955 l 0 955 l 0 1215 z "},"{":{"ha":1128,"x_min":0,"x_max":955,"o":"m 260 -260 l 260 521 l 0 521 l 0 781 l 260 781 l 260 1563 l 955 1563 l 955 1302 l 521 1302 l 521 0 l 955 0 l 955 -260 l 260 -260 z "},"|":{"ha":434,"x_min":0,"x_max":260,"o":"m 0 -608 l 0 1823 l 260 1823 l 260 -608 l 0 -608 z "},"}":{"ha":1128,"x_min":0,"x_max":955,"o":"m 0 -260 l 0 0 l 434 0 l 434 1302 l 0 1302 l 0 1563 l 694 1563 l 694 781 l 955 781 l 955 521 l 694 521 l 694 -260 l 0 -260 z "},"~":{"ha":868,"x_min":0,"x_max":694,"o":"m 0 439 q 260 608 87 372 q 694 776 434 844 l 694 506 q 434 338 608 574 q 0 170 260 102 l 0 439 z "},"‘":{"ha":434,"x_min":0,"x_max":260,"o":"m 0 1215 l 0 1563 l 260 1563 l 260 1215 l 0 1215 z "},"’":{"ha":434,"x_min":0,"x_max":260,"o":"m 0 1215 l 0 1563 l 260 1563 l 260 1215 l 0 1215 z "},"“":{"ha":1042,"x_min":0,"x_max":694,"o":"m 0 1215 l 0 1563 l 260 1563 l 260 1215 l 0 1215 m 434 1215 l 434 1563 l 694 1563 l 694 1215 l 434 1215 z "},"”":{"ha":1042,"x_min":0,"x_max":694,"o":"m 0 1215 l 0 1563 l 260 1563 l 260 1215 l 0 1215 m 434 1215 l 434 1563 l 694 1563 l 694 1215 l 434 1215 z "},"£":{"ha":1389,"x_min":-87,"x_max":1215,"o":"m 174 781 q 0 1255 0 1042 q 178 1645 0 1468 q 608 1823 355 1823 q 1038 1645 860 1823 q 1215 1215 1215 1468 l 1215 1214 l 955 1214 l 955 1215 q 853 1461 955 1359 q 608 1563 751 1563 q 362 1461 464 1563 q 260 1200 260 1359 q 434 781 260 1042 l 955 781 l 955 521 l 434 521 l 347 260 l 1215 260 l 1215 0 l 0 0 l 174 521 l -87 521 l -87 781 l 174 781 z "},"€":{"ha":1389,"x_min":-260,"x_max":1215,"o":"m 260 781 l 260 608 q 362 362 260 464 q 608 260 464 260 q 853 362 751 260 q 955 606 955 464 l 1215 606 q 1038 178 1215 355 q 608 0 860 0 q 178 178 355 0 q 0 608 0 355 l 0 781 l -260 781 l -260 1042 l 0 1042 l 0 1215 q 178 1645 0 1468 q 608 1823 355 1823 q 1038 1645 860 1823 q 1215 1215 1215 1468 l 1215 1214 l 955 1214 l 955 1215 q 853 1461 955 1359 q 608 1563 751 1563 q 362 1461 464 1563 q 260 1215 260 1359 l 260 1042 l 521 1042 l 521 781 l 260 781 z "},"¥":{"ha":1389,"x_min":0,"x_max":1215,"o":"m 475 521 l 475 621 q 178 785 307 656 q 0 1215 0 963 l 0 1823 l 260 1823 l 260 1215 q 362 970 260 1072 q 608 868 464 868 q 853 970 751 868 q 955 1215 955 1072 l 955 1823 l 1215 1823 l 1215 1215 q 1038 785 1215 963 q 735 620 906 654 l 735 521 l 1215 521 l 1215 260 l 735 260 l 735 0 l 475 0 l 475 260 l 0 260 l 0 521 l 475 521 z "}}}
